<?xml version="1.0" encoding="UTF-8"?>
<svg version="1.1" xmlns="http://www.w3.org/2000/svg" width="512" height="512">
<path d="M0 0 C168.96 0 337.92 0 512 0 C512 168.96 512 337.92 512 512 C343.04 512 174.08 512 0 512 C0 343.04 0 174.08 0 0 Z " fill="#54C0DF" transform="translate(0,0)"/>
<path d="M0 0 C0.89805862 -0.0159874 1.79611725 -0.03197479 2.72138977 -0.04844666 C3.6849791 -0.05380936 4.64856842 -0.05917206 5.64135742 -0.06469727 C6.64011398 -0.07372574 7.63887054 -0.08275421 8.66789246 -0.09205627 C10.78019211 -0.10655521 12.89253663 -0.11544462 15.00488281 -0.11914062 C18.22497928 -0.1310229 21.44315043 -0.18020116 24.6628418 -0.23071289 C26.71817102 -0.24017919 28.77351197 -0.24741324 30.82885742 -0.25219727 C31.78637405 -0.27172958 32.74389069 -0.2912619 33.73042297 -0.31138611 C39.98288774 -0.26951267 43.93608473 0.84374107 48.43432617 5.30639648 C52.16409403 9.86276131 53.07976913 14.00634598 52.82104492 19.87670898 C52.02476673 24.87958811 49.68838297 28.08534118 46.05932617 31.61889648 C39.61701374 35.76038304 33.46807091 35.5556722 26.05932617 35.43139648 C24.52598633 35.41786133 24.52598633 35.41786133 22.96166992 35.40405273 C20.45231095 35.38060078 17.94344281 35.34778004 15.43432617 35.30639648 C15.39863525 36.00200684 15.36294434 36.69761719 15.32617188 37.41430664 C14.92308661 44.56716219 13.78126451 51.51546711 12.49682617 58.55639648 C12.32699219 59.4904834 12.1571582 60.42457031 11.98217773 61.38696289 C11.22141518 65.46392564 10.41546736 69.49798759 9.36010742 73.50952148 C8.43662394 77.29697273 7.95168252 80.93087667 7.55932617 84.80639648 C6.87399706 90.9280525 5.65751536 96.69858943 4.04077148 102.65405273 C2.07598672 110.17906941 0.97476017 117.84162544 -0.1706543 125.52685547 C-0.91285192 130.45861462 -1.74508022 135.24629614 -3.0300293 140.07202148 C-4.31300608 145.42380065 -5.13003865 150.88538296 -6.06567383 156.30639648 C-8.43596469 170.03971806 -8.43596469 170.03971806 -9.60083008 174.56030273 C-10.76774693 179.09096371 -11.64260449 183.64693654 -12.50317383 188.24389648 C-12.67719727 189.15469971 -12.8512207 190.06550293 -13.03051758 191.00390625 C-13.865567 195.40902218 -14.66128252 199.81353092 -15.35083008 204.24389648 C-15.47272705 205.00581299 -15.59462402 205.76772949 -15.72021484 206.55273438 C-15.94312983 207.96662978 -16.15414858 209.38247645 -16.35058594 210.80029297 C-17.24569111 216.42211953 -19.4096812 220.29778616 -23.56567383 224.16967773 C-24.22567383 224.64791992 -24.88567383 225.12616211 -25.56567383 225.61889648 C-26.22567383 226.1100293 -26.88567383 226.60116211 -27.56567383 227.10717773 C-32.29165687 229.94092147 -37.53542213 229.52364398 -42.87817383 229.55639648 C-43.70768555 229.57702148 -44.53719727 229.59764648 -45.3918457 229.61889648 C-50.89720572 229.65365803 -54.65929388 228.82248877 -59.56567383 226.30639648 C-59.56567383 225.64639648 -59.56567383 224.98639648 -59.56567383 224.30639648 C-60.18571289 224.05374023 -60.80575195 223.80108398 -61.44458008 223.54077148 C-63.94850036 222.08360978 -64.42349462 221.20335196 -65.50317383 218.55639648 C-65.83575195 217.74170898 -66.16833008 216.92702148 -66.51098633 216.08764648 C-70.86094442 204.61664589 -74.70433911 192.98131788 -78.55932617 181.3371582 C-79.6351662 178.09711013 -80.71879033 174.85973923 -81.80395508 171.62280273 C-82.57880291 169.3090369 -83.35354178 166.99523457 -84.12817383 164.68139648 C-84.51094482 163.53936768 -84.89371582 162.39733887 -85.28808594 161.22070312 C-87.0198316 156.0321596 -88.72705993 150.84060641 -90.33129883 145.61108398 C-90.59612061 144.74950684 -90.86094238 143.88792969 -91.13378906 143.00024414 C-91.60989089 141.43718106 -92.07885887 139.87191584 -92.53857422 138.30395508 C-93.9900022 133.52857443 -95.95205436 129.56397702 -98.56567383 125.30639648 C-100.87978957 131.48520297 -103.01090566 137.66411629 -104.85864258 143.99780273 C-105.67800136 146.67316759 -106.68274029 149.26372478 -107.69067383 151.87280273 C-108.87720984 155.17285602 -109.90621534 158.51891884 -110.94067383 161.86889648 C-114.18779499 172.36280637 -117.46745229 182.8132636 -121.66333008 192.97436523 C-122.92580076 196.23711414 -123.87850873 199.56903972 -124.85083008 202.92749023 C-125.91236588 206.46014216 -127.20255095 209.88074737 -128.56567383 213.30639648 C-129.04004883 214.52327148 -129.51442383 215.74014648 -130.00317383 216.99389648 C-133.12837689 223.61932699 -136.79457221 226.79216743 -143.56567383 229.30639648 C-146.59195562 229.8122814 -149.50414685 229.82487544 -152.56567383 229.74389648 C-153.69875977 229.75453125 -153.69875977 229.75453125 -154.85473633 229.76538086 C-161.00747557 229.6966647 -166.65234205 228.5785703 -171.58911133 224.72827148 C-175.77365394 219.55201646 -177.56567383 215.0930085 -177.56567383 208.30639648 C-178.22567383 208.30639648 -178.88567383 208.30639648 -179.56567383 208.30639648 C-179.72648437 207.60667725 -179.88729492 206.90695801 -180.05297852 206.18603516 C-180.8001255 202.95363855 -181.55783895 199.72380331 -182.31567383 196.49389648 C-182.56833008 195.39368164 -182.82098633 194.2934668 -183.08129883 193.15991211 C-184.57120268 186.84644454 -186.32850925 180.83331129 -188.73168945 174.80444336 C-190.0933636 170.72579879 -190.38020034 166.58156036 -190.56567383 162.30639648 C-191.22567383 162.30639648 -191.88567383 162.30639648 -192.56567383 162.30639648 C-193.2378589 159.55763966 -193.90359818 156.80758923 -194.56567383 154.05639648 C-194.75645508 153.2790918 -194.94723633 152.50178711 -195.14379883 151.70092773 C-195.32426758 150.94682617 -195.50473633 150.19272461 -195.69067383 149.41577148 C-195.94204102 148.37888184 -195.94204102 148.37888184 -196.19848633 147.32104492 C-196.56567383 145.30639648 -196.56567383 145.30639648 -196.56567383 141.30639648 C-197.22567383 141.30639648 -197.88567383 141.30639648 -198.56567383 141.30639648 C-199.40642601 137.89151156 -200.23697375 134.47422436 -201.06567383 131.05639648 C-201.30415039 130.08831055 -201.54262695 129.12022461 -201.78833008 128.12280273 C-202.01391602 127.18823242 -202.23950195 126.25366211 -202.47192383 125.29077148 C-202.68139648 124.43193359 -202.89086914 123.5730957 -203.10668945 122.68823242 C-203.56567383 120.30639648 -203.56567383 120.30639648 -203.56567383 116.30639648 C-204.22567383 116.30639648 -204.88567383 116.30639648 -205.56567383 116.30639648 C-206.0737383 114.57958212 -206.5717785 112.84981669 -207.06567383 111.11889648 C-207.34411133 110.1559668 -207.62254883 109.19303711 -207.90942383 108.20092773 C-208.53520291 105.44079499 -208.61542286 103.1192894 -208.56567383 100.30639648 C-209.38245605 100.32734375 -210.19923828 100.34829102 -211.04077148 100.36987305 C-214.75727937 100.45324778 -218.47359015 100.50512636 -222.19067383 100.55639648 C-223.47586914 100.58991211 -224.76106445 100.62342773 -226.08520508 100.65795898 C-237.93267528 100.7807307 -237.93267528 100.7807307 -242.56567383 96.30639648 C-246.63195573 92.14554989 -247.9209797 87.93996418 -248.12817383 82.18139648 C-247.89943553 77.13644625 -247.08112522 74.10688447 -243.56567383 70.30639648 C-239.68224271 66.88527859 -237.36112995 65.18951462 -232.21118164 65.14526367 C-230.85902557 65.13085236 -230.85902557 65.13085236 -229.47955322 65.1161499 C-228.50250427 65.11190002 -227.52545532 65.10765015 -226.51879883 65.10327148 C-225.01286163 65.09472137 -225.01286163 65.09472137 -223.47650146 65.08599854 C-221.34803321 65.07653978 -219.21955025 65.07001109 -217.09106445 65.06616211 C-213.84275513 65.05647723 -210.595084 65.02547034 -207.34692383 64.99389648 C-205.27921925 64.9873644 -203.21151015 64.98211474 -201.14379883 64.97827148 C-199.69037079 64.95975128 -199.69037079 64.95975128 -198.20758057 64.94085693 C-191.99131236 64.96126688 -187.6808765 65.68862883 -182.76611328 69.81860352 C-178.88876309 74.30802451 -177.13976856 78.45013827 -175.75317383 84.18139648 C-175.55014648 84.93291992 -175.34711914 85.68444336 -175.13793945 86.45874023 C-173.7703768 91.72137409 -173.06597707 96.89451406 -172.56567383 102.30639648 C-171.90567383 102.30639648 -171.24567383 102.30639648 -170.56567383 102.30639648 C-169.72458284 105.55443936 -168.89416727 108.80511952 -168.06567383 112.05639648 C-167.70795898 113.43698242 -167.70795898 113.43698242 -167.34301758 114.84545898 C-167.00463867 116.17963867 -167.00463867 116.17963867 -166.65942383 117.54077148 C-166.34521484 118.76618652 -166.34521484 118.76618652 -166.0246582 120.01635742 C-165.56567383 122.30639648 -165.56567383 122.30639648 -165.56567383 126.30639648 C-164.90567383 126.30639648 -164.24567383 126.30639648 -163.56567383 126.30639648 C-163.31172852 127.36858398 -163.0577832 128.43077148 -162.79614258 129.52514648 C-162.08839399 132.44460942 -161.37330364 135.36201721 -160.63989258 138.27514648 C-160.47062256 138.9499707 -160.30135254 139.62479492 -160.12695312 140.32006836 C-159.35432205 143.05435562 -158.31732326 145.6618939 -157.28466797 148.30664062 C-156.57032074 150.29347191 -156.04297642 152.2476319 -155.56176758 154.30249023 C-155.38645508 155.03016602 -155.21114258 155.7578418 -155.03051758 156.50756836 C-154.68276693 157.9822887 -154.34273807 159.45885423 -154.01098633 160.93725586 C-153.58858532 162.74190405 -153.08342483 164.52675843 -152.56567383 166.30639648 C-151.90567383 166.63639648 -151.24567383 166.96639648 -150.56567383 167.30639648 C-150.46254883 166.35764648 -150.35942383 165.40889648 -150.25317383 164.43139648 C-149.16252388 156.90288223 -146.46681649 149.8641331 -143.60083008 142.85717773 C-140.35247128 134.85273134 -137.81328913 126.76669429 -135.49926758 118.44702148 C-134.45304264 114.92750328 -133.01130352 111.67953244 -131.56567383 108.30639648 C-130.5372562 104.78572485 -129.5683448 101.25396826 -128.62817383 97.70874023 C-127.57556874 94.33808202 -126.14129588 91.45764059 -124.56567383 88.30639648 C-123.96905197 86.21164925 -123.40703675 84.10676837 -122.87817383 81.99389648 C-120.92295526 75.3779825 -117.83647156 70.76546972 -112.56567383 66.30639648 C-107.89625425 64.74992329 -103.20706847 65.03935554 -98.31567383 64.99389648 C-97.29086914 64.96489258 -96.26606445 64.93588867 -95.21020508 64.90600586 C-88.7302724 64.85179793 -84.72103109 65.25669326 -79.56567383 69.30639648 C-74.91773925 74.13594701 -73.20829359 79.70406014 -71.50317383 86.05639648 C-70.99239846 87.85391106 -70.47939809 89.65079497 -69.96411133 91.44702148 C-69.72273437 92.2971582 -69.48135742 93.14729492 -69.23266602 94.02319336 C-68.21697099 97.50005276 -66.98054849 100.87267798 -65.70239258 104.25952148 C-64.0564745 108.67126067 -62.50024466 113.11352154 -60.94067383 117.55639648 C-60.63911377 118.40911133 -60.33755371 119.26182617 -60.02685547 120.14038086 C-58.38165624 124.82862502 -56.9287107 129.52699251 -55.56567383 134.30639648 C-54.94724367 135.92132544 -54.30347897 137.52691208 -53.62817383 139.11889648 C-51.92974977 143.24901255 -50.60720656 147.37214702 -49.47192383 151.68920898 C-48.64099343 154.08887867 -47.65440623 156.20886621 -46.5090332 158.4699707 C-46.14596069 159.18885468 -45.78288818 159.90773865 -45.40881348 160.64840698 C-44.99145935 161.46911179 -44.99145935 161.46911179 -44.56567383 162.30639648 C-44.33380371 161.05093018 -44.10193359 159.79546387 -43.86303711 158.50195312 C-42.99617835 153.8107325 -42.12718382 149.11990954 -41.25756836 144.42919922 C-40.88264327 142.40521732 -40.50828497 140.38113033 -40.13452148 138.35693359 C-39.59486184 135.43485649 -39.05311428 132.51317277 -38.51098633 129.59155273 C-38.34631866 128.69743179 -38.181651 127.80331085 -38.01199341 126.88209534 C-37.2473333 122.77141559 -36.44180699 118.68040044 -35.51806641 114.60229492 C-34.66866314 110.84783638 -33.98575969 107.08980346 -33.38208008 103.28686523 C-33.17647461 102.01649414 -32.97086914 100.74612305 -32.7590332 99.43725586 C-32.34038563 96.8203845 -31.92370042 94.2031984 -31.5090332 91.58569336 C-30.3863714 84.6713557 -29.03512819 77.93073682 -27.26416016 71.15478516 C-26.10754532 66.43817371 -25.37633551 61.66427956 -24.62817383 56.86889648 C-22.93539422 46.39466883 -21.08840762 35.96503114 -19.00512695 25.5612793 C-18.60544125 23.51044753 -18.24729088 21.4516307 -17.89379883 19.39233398 C-16.52087721 12.10915221 -14.40176054 7.08822237 -8.56567383 2.30639648 C-5.60479575 0.56717624 -3.42092295 0.04623786 0 0 Z " fill="#112E5F" transform="translate(356.565673828125,177.693603515625)"/>
<path d="M0 0 C1.12910575 -0.00935994 2.2582115 -0.01871989 3.42153257 -0.02836347 C7.18958143 -0.05221808 10.95616931 -0.03336884 14.72422791 -0.01446533 C17.43178291 -0.01929941 20.13927667 -0.03306737 22.84680176 -0.04632568 C29.42773776 -0.07295049 36.00826229 -0.06726793 42.58921415 -0.04984984 C47.93888898 -0.0362788 53.28844879 -0.03447073 58.63813591 -0.04099274 C59.40060642 -0.04191214 60.16307693 -0.04283153 60.94865261 -0.04377879 C62.49776498 -0.04569721 64.04687733 -0.04764249 65.59598964 -0.04961434 C80.10821428 -0.06670718 94.62021119 -0.04707699 109.13239848 -0.01481214 C121.5765337 0.01199845 134.0203331 0.00733199 146.46446228 -0.02032471 C160.92761254 -0.05245372 175.39056348 -0.06506505 189.85374445 -0.04665112 C191.3967329 -0.04473989 192.93972137 -0.04285367 194.48270988 -0.04099274 C195.24182373 -0.04006708 196.00093758 -0.03914143 196.78305488 -0.03818773 C202.12498112 -0.03301351 207.4667806 -0.04173764 212.80868721 -0.05587006 C219.32061429 -0.07271979 225.83210759 -0.06809925 232.34398515 -0.03618559 C235.66486154 -0.02044533 238.98441876 -0.0174339 242.30538177 -0.03408051 C245.90897959 -0.05047853 249.51054533 -0.02991299 253.11401367 0 C254.15847359 -0.01338433 255.20293351 -0.02676866 256.27904373 -0.04055858 C263.37092667 0.07362497 267.40204196 1.81707908 272.49351501 6.76190186 C275.94285666 10.46994413 276.77760445 13.2604476 276.99351501 18.19940186 C276.77506128 23.55880013 275.78080816 26.52302386 272.49351501 30.76190186 C268.00108817 34.24582471 264.53783793 35.88477386 258.88317585 35.89332962 C257.9311693 35.89717077 256.97916276 35.90101191 255.99830753 35.90496945 C254.42625742 35.90366973 254.42625742 35.90366973 252.82244873 35.90234375 C251.71072019 35.90531487 250.59899165 35.90828599 249.45357436 35.91134715 C245.70882375 35.92005499 241.96410504 35.92154417 238.21934509 35.92303467 C235.54226021 35.92766139 232.86517826 35.93266512 230.18809509 35.93807983 C222.90077958 35.95166715 215.61346957 35.9576887 208.3261435 35.96209049 C203.77566235 35.96485265 199.22518332 35.96909 194.6747036 35.97359467 C182.0755632 35.98578863 169.4764245 35.99608719 156.87727833 35.99946976 C156.07073832 35.99968932 155.2641983 35.99990889 154.43321769 36.00013511 C153.62474486 36.00035339 152.81627203 36.00057166 151.98330003 36.00079656 C150.34502208 36.00124002 148.70674413 36.00168659 147.06846619 36.00213623 C145.84950192 36.00246838 145.84950192 36.00246838 144.60591211 36.00280723 C131.44240063 36.00675402 118.27894456 36.02420383 105.11545447 36.04749575 C91.60037035 36.07121669 78.08531401 36.08367197 64.57020873 36.08483768 C56.98215735 36.0857541 49.39417812 36.09149812 41.80614662 36.10965729 C35.34361571 36.1250684 28.88117924 36.13017286 22.41863344 36.12191918 C19.1224311 36.118016 15.82645838 36.12056244 12.53027153 36.13297653 C8.95318371 36.14565849 5.37658382 36.13983903 1.79949951 36.12939453 C0.76261972 36.13745094 -0.27426008 36.14550734 -1.34256047 36.15380788 C-7.66346175 36.11064539 -14.12766608 35.83559152 -19.06363934 31.34536862 C-22.87305091 26.97539314 -23.67193457 23.53768813 -23.75648499 17.88690186 C-23.79515686 16.34389404 -23.79515686 16.34389404 -23.83460999 14.76971436 C-23.35600781 10.38252772 -22.09046181 8.13485432 -18.74236971 5.23280978 C-12.48232299 0.62371753 -7.65459671 -0.0983005 0 0 Z " fill="#13336B" transform="translate(132.50648498535156,112.23809814453125)"/>
<path d="M0 0 C1.09075506 -0.00233999 1.09075506 -0.00233999 2.20354557 -0.00472724 C4.65256306 -0.00873207 7.10151911 -0.00554959 9.55053711 -0.00241089 C11.30125973 -0.00376516 13.05198207 -0.00554524 14.80270386 -0.00772095 C19.56703765 -0.01229222 24.33134987 -0.01050697 29.09568405 -0.00734186 C34.07290456 -0.00481669 39.05012317 -0.00715624 44.02734375 -0.00872803 C52.38696628 -0.01054926 60.74657998 -0.00814462 69.10620117 -0.00338745 C78.78215651 0.00205508 88.45809078 0.00029239 98.1340456 -0.00521386 C106.42959175 -0.0097463 114.72513154 -0.01039489 123.02067852 -0.00777519 C127.98051486 -0.00621314 132.94034129 -0.00601669 137.900177 -0.00931168 C142.56222651 -0.01219228 147.22424876 -0.01021118 151.88629532 -0.00441742 C153.60121744 -0.00309084 155.31614185 -0.00348221 157.03106308 -0.00568008 C159.36432734 -0.00839558 161.69750316 -0.00500552 164.03076172 0 C165.3389537 0.00037703 166.64714569 0.00075405 167.99497986 0.0011425 C171.01538086 0.12698364 171.01538086 0.12698364 173.01538086 1.12698364 C173.01538086 1.78698364 173.01538086 2.44698364 173.01538086 3.12698364 C173.59288086 3.33323364 174.17038086 3.53948364 174.76538086 3.75198364 C178.09575258 5.78721081 179.28522209 7.60487472 181.01538086 11.12698364 C181.91934599 17.72294902 181.41478549 23.38316203 178.01538086 29.12698364 C172.88709667 33.9922789 169.08708165 35.37617656 162.05841064 35.38768005 C161.35826647 35.3915056 160.65812229 35.39533115 159.93676162 35.39927262 C157.59082133 35.40959077 155.24512634 35.40561273 152.89916992 35.40164185 C151.21699802 35.40598909 149.5348281 35.41117228 147.85266113 35.41712952 C143.2822364 35.4305323 138.7118943 35.43109655 134.14145374 35.42856622 C130.32453614 35.42749695 126.50763529 35.43237897 122.69072127 35.43717164 C113.68271748 35.44827216 104.67475538 35.44870177 95.66674805 35.44265747 C86.38049191 35.43662209 77.09438746 35.44891637 67.80815721 35.47022754 C59.83178691 35.48785821 51.85546482 35.49384241 43.87907577 35.4905898 C39.11689492 35.48877846 34.35482217 35.49139779 29.592659 35.50530434 C25.11106527 35.51790118 20.62970726 35.51592102 16.14811707 35.50289345 C14.50666473 35.50053181 12.86519572 35.50324752 11.22376251 35.51151657 C-6.89275519 35.59617264 -6.89275519 35.59617264 -13.85961914 29.68948364 C-18.11787582 24.55452706 -18.42111532 20.62197449 -18.30102539 14.04104614 C-17.72842535 8.7674705 -15.20263873 6.2000009 -11.35961914 2.81448364 C-7.32502218 -0.05220367 -4.96565282 0.00143112 0 0 Z " fill="#13346B" transform="translate(126.984619140625,177.87301635742188)"/>
</svg>
