<?xml version="1.0" encoding="UTF-8"?>
<svg version="1.1" xmlns="http://www.w3.org/2000/svg" width="512" height="512">
<path d="M0 0 C1.61093329 -0.00462054 3.22186234 -0.01098112 4.83278275 -0.01890898 C9.21666427 -0.03546735 13.60019345 -0.02741808 17.98407555 -0.0149641 C22.72854261 -0.00586012 27.47295189 -0.01990969 32.21740723 -0.03088379 C41.49488798 -0.04861683 50.77223886 -0.04485234 60.04972458 -0.03323323 C67.59358531 -0.02417859 75.1374098 -0.02298367 82.68127441 -0.02732849 C83.75730211 -0.02794142 84.8333298 -0.02855436 85.94196439 -0.02918586 C88.12828542 -0.03046484 90.31460644 -0.03176169 92.50092745 -0.03307623 C112.97449275 -0.04446675 133.44798626 -0.03139232 153.92153978 -0.00987476 C171.46693485 0.00799482 189.01222403 0.00489028 206.55761719 -0.0135498 C226.96079118 -0.03498353 247.36390235 -0.04336826 267.76708603 -0.03110075 C269.9451065 -0.02982663 272.12312697 -0.02856915 274.30114746 -0.02732849 C275.37261497 -0.02671139 276.44408247 -0.02609429 277.54801869 -0.02545848 C285.07780424 -0.02201309 292.60754975 -0.02781641 300.1373291 -0.0372467 C309.32080574 -0.0484959 318.50414571 -0.0453654 327.68760681 -0.02412373 C332.36801163 -0.01365254 337.04818907 -0.00942399 341.72859192 -0.02272034 C346.02191779 -0.03473208 350.31480778 -0.02793877 354.60809469 -0.00681013 C356.1523132 -0.00238095 357.69656934 -0.00452624 359.24076319 -0.01431328 C378.44414058 -0.12658597 394.6496008 5.05051883 409.49121094 17.50793457 C410.48121094 18.22980957 411.47121094 18.95168457 412.49121094 19.69543457 C425.49096995 30.74522973 433.28638132 48.67641624 434.85909367 65.42591095 C435.00226558 69.62824352 435.02578906 73.81291965 434.99914551 78.01672363 C435.00376604 79.62765692 435.01012663 81.23858597 435.01805449 82.84950638 C435.03461286 87.23338791 435.02656359 91.61691708 435.01410961 96.00079918 C435.00500563 100.74526625 435.0190552 105.48967553 435.0300293 110.23413086 C435.04776234 119.51161161 435.04399785 128.78896249 435.03237873 138.06644821 C435.02332409 145.61030894 435.02212918 153.15413343 435.026474 160.69799805 C435.02708693 161.77402574 435.02769986 162.85005343 435.02833137 163.95868802 C435.02961034 166.14500905 435.0309072 168.33133007 435.03222173 170.51765108 C435.04361226 190.99121638 435.03053783 211.46470989 435.00902027 231.93826342 C434.99115069 249.48365848 434.99425523 267.02894767 435.01269531 284.57434082 C435.03412904 304.97751481 435.04251376 325.38062598 435.03024626 345.78380966 C435.02897214 347.96183013 435.02771465 350.13985061 435.026474 352.31787109 C435.0258569 353.3893386 435.02523979 354.46080611 435.02460399 355.56474233 C435.0211586 363.09452788 435.02696192 370.62427339 435.03639221 378.15405273 C435.0476414 387.33752937 435.04451091 396.52086935 435.02326924 405.70433044 C435.01279805 410.38473527 435.0085695 415.0649127 435.02186584 419.74531555 C435.03387759 424.03864143 435.02708428 428.33153141 435.00595564 432.62481833 C435.00152645 434.16903683 435.00367175 435.71329298 435.01345879 437.25748682 C435.12573148 456.46086422 429.94862668 472.66632443 417.49121094 487.50793457 C416.40839844 488.99293457 416.40839844 488.99293457 415.30371094 490.50793457 C404.25391578 503.50769358 386.32272927 511.30310495 369.57323456 512.8758173 C365.37090198 513.01898922 361.18622586 513.04251269 356.98242188 513.01586914 C355.37148859 513.02048968 353.76055953 513.02685026 352.14963913 513.03477812 C347.7657576 513.05133649 343.38222842 513.04328722 338.99834633 513.03083324 C334.25387926 513.02172926 329.50946998 513.03577883 324.76501465 513.04675293 C315.4875339 513.06448597 306.21018301 513.06072148 296.9326973 513.04910237 C289.38883656 513.04004773 281.84501208 513.03885281 274.30114746 513.04319763 C273.22511977 513.04381056 272.14909208 513.0444235 271.04045749 513.045055 C268.85413646 513.04633398 266.66781544 513.04763083 264.48149443 513.04894537 C244.00792913 513.06033589 223.53443561 513.04726146 203.06088209 513.0257439 C185.51548703 513.00787433 167.97019784 513.01097886 150.42480469 513.02941895 C130.02163069 513.05085267 109.61851953 513.0592374 89.21533585 513.04696989 C87.03731538 513.04569577 84.8592949 513.04443829 82.68127441 513.04319763 C81.60980691 513.04258053 80.5383394 513.04196343 79.43440318 513.04132763 C71.90461763 513.03788223 64.37487212 513.04368555 56.84509277 513.05311584 C47.66161614 513.06436504 38.47827616 513.06123454 29.29481506 513.03999287 C24.61441024 513.02952168 19.9342328 513.02529313 15.25382996 513.03858948 C10.96050408 513.05060122 6.6676141 513.04380791 2.37432718 513.02267927 C0.83010868 513.01825009 -0.71414747 513.02039538 -2.25834131 513.03018242 C-21.46171871 513.14245511 -37.66717892 507.96535031 -52.50878906 495.50793457 C-53.49878906 494.78605957 -54.48878906 494.06418457 -55.50878906 493.32043457 C-68.50854807 482.27063941 -76.30395945 464.3394529 -77.87667179 447.58995819 C-78.01984371 443.38762562 -78.04336718 439.20294949 -78.01672363 434.99914551 C-78.02134417 433.38821222 -78.02770475 431.77728317 -78.03563261 430.16636276 C-78.05219099 425.78248123 -78.04414171 421.39895206 -78.03168774 417.01506996 C-78.02258375 412.2706029 -78.03663333 407.52619361 -78.04760742 402.78173828 C-78.06534047 393.50425753 -78.06157598 384.22690665 -78.04995686 374.94942093 C-78.04090222 367.4055602 -78.0397073 359.86173571 -78.04405212 352.31787109 C-78.04497152 350.70382956 -78.04497152 350.70382956 -78.04590949 349.05718112 C-78.04718847 346.87086009 -78.04848532 344.68453907 -78.04979986 342.49821806 C-78.06119038 322.02465276 -78.04811595 301.55115925 -78.02659839 281.07760572 C-78.00872882 263.53221066 -78.01183335 245.98692148 -78.03027344 228.44152832 C-78.05170716 208.03835433 -78.06009189 187.63524316 -78.04782438 167.23205948 C-78.04655026 165.05403901 -78.04529278 162.87601853 -78.04405212 160.69799805 C-78.04343502 159.62653054 -78.04281792 158.55506303 -78.04218212 157.45112681 C-78.03873672 149.92134126 -78.04454005 142.39159575 -78.05397034 134.86181641 C-78.06521953 125.67833977 -78.06208904 116.49499979 -78.04084736 107.3115387 C-78.03037617 102.63113387 -78.02614762 97.95095644 -78.03944397 93.27055359 C-78.05145571 88.97722772 -78.0446624 84.68433773 -78.02353376 80.39105082 C-78.01910458 78.84683231 -78.02124987 77.30257616 -78.03103691 75.75838232 C-78.14330961 56.55500493 -72.9662048 40.34954471 -60.50878906 25.50793457 C-59.78691406 24.51793457 -59.06503906 23.52793457 -58.32128906 22.50793457 C-43.705946 5.31341333 -21.47951445 -0.13613634 0 0 Z " fill="#54C0DF" transform="translate(77.5087890625,-0.5079345703125)"/>
<path d="M0 0 C0.82876144 -0.00570007 1.65752289 -0.01140015 2.51139832 -0.01727295 C4.26743288 -0.02672748 6.02348522 -0.03325873 7.77954102 -0.03710938 C10.45946471 -0.04679906 13.13861628 -0.0778109 15.81835938 -0.109375 C17.52473503 -0.11590673 19.23111617 -0.12115654 20.9375 -0.125 C21.73662308 -0.1373468 22.53574615 -0.1496936 23.35908508 -0.16241455 C27.97294579 -0.14404921 30.90129813 0.25510497 34.66796875 3.203125 C38.55509354 7.63012823 39.97342813 10.12642809 39.88671875 16.109375 C39.44840438 20.30466967 37.44351927 23.24037263 34.85546875 26.453125 C29.56881226 30.68245019 23.72726002 30.46153136 17.29296875 30.328125 C16.46152344 30.31910156 15.63007813 30.31007812 14.7734375 30.30078125 C12.73815538 30.2773872 10.70302311 30.24152225 8.66796875 30.203125 C8.57773437 31.46769531 8.4875 32.73226562 8.39453125 34.03515625 C7.64096985 41.53007264 6.05922003 48.8683353 4.57473755 56.24520874 C3.65252177 60.8330007 2.74717188 65.42410012 1.84375 70.015625 C1.56636238 71.42511665 1.56636238 71.42511665 1.28337097 72.86308289 C-0.50899468 82.02017645 -2.15099036 91.20150501 -3.76953125 100.390625 C-6.71954993 117.10898193 -9.93309353 133.77025221 -13.22436523 150.42456055 C-13.49763641 151.80787315 -13.49763641 151.80787315 -13.77642822 153.21913147 C-14.13233643 155.01857591 -14.48912711 156.81784607 -14.84686279 158.6169281 C-15.65932553 162.7176704 -16.45173447 166.8196729 -17.18676758 170.93505859 C-17.38468903 172.03455589 -17.38468903 172.03455589 -17.58660889 173.15626526 C-17.93388082 175.10228757 -18.27306933 177.04974767 -18.61157227 178.99731445 C-19.95910991 184.99342317 -22.43163948 189.35033998 -27.64453125 192.703125 C-34.47628999 195.61800873 -43.91079324 195.41185528 -51.00390625 193.47265625 C-56.47984093 190.95084423 -59.77530122 187.04509502 -61.86499023 181.49072266 C-62.36331397 180.03647088 -62.8503666 178.57832463 -63.328125 177.1171875 C-63.59829941 176.31900101 -63.86847382 175.52081451 -64.14683533 174.69844055 C-65.03098433 172.07821772 -65.90033018 169.45334033 -66.76953125 166.828125 C-67.38078992 165.00694614 -67.99294382 163.18606754 -68.60595703 161.36547852 C-70.20327924 156.61286825 -71.78783192 151.85610313 -73.36895752 147.0980835 C-74.95335127 142.33546357 -76.54769705 137.57617694 -78.140625 132.81640625 C-81.21726571 123.61623116 -84.27928244 114.41125294 -87.33203125 105.203125 C-90.2586167 112.26811963 -92.81362947 119.40286481 -95.1953125 126.66796875 C-95.72791939 128.27714928 -95.72791939 128.27714928 -96.27128601 129.9188385 C-97.77232669 134.45421399 -99.26626361 138.99191944 -100.76049805 143.52954102 C-103.25526688 151.09735443 -105.77750265 158.65527343 -108.33203125 166.203125 C-108.65057068 167.15245911 -108.96911011 168.10179321 -109.29730225 169.07989502 C-110.18035646 171.69137447 -111.08577544 174.29382542 -112 176.89453125 C-112.2501033 177.64177963 -112.5002066 178.38902802 -112.75788879 179.15892029 C-114.96544884 185.29946574 -118.25460659 190.71958562 -124.2734375 193.62109375 C-132.35389512 195.15875427 -141.16638586 195.62448066 -148.33203125 191.203125 C-153.67107831 186.93526115 -154.94756316 182.35656172 -156.70703125 176.015625 C-156.99956787 175.00967285 -157.29210449 174.0037207 -157.59350586 172.96728516 C-160.41360154 163.17639488 -163.03243638 153.32747801 -165.6484375 143.48046875 C-167.14936211 137.8492188 -168.71937366 132.24078842 -170.33203125 126.640625 C-170.6882959 125.40070801 -170.6882959 125.40070801 -171.05175781 124.13574219 C-171.5439468 122.42329348 -172.03630086 120.71089222 -172.52880859 118.99853516 C-174.07682906 113.61104751 -175.61588807 108.22114361 -177.14453125 102.828125 C-177.44681641 101.7755249 -177.74910156 100.7229248 -178.06054688 99.63842773 C-179.51411221 94.49315572 -180.75520487 89.52191373 -181.33203125 84.203125 C-182.37544678 84.2345459 -182.37544678 84.2345459 -183.43994141 84.26660156 C-186.61215583 84.3500948 -189.78413856 84.40189029 -192.95703125 84.453125 C-194.05144531 84.48664063 -195.14585937 84.52015625 -196.2734375 84.5546875 C-202.62899959 84.63172462 -206.53315141 84.53811312 -211.33203125 80.203125 C-214.71819234 76.36547577 -214.84815681 72.56627727 -214.6796875 67.63671875 C-213.97780776 62.72356058 -211.44604647 60.11515189 -207.7265625 57.07006836 C-203.46617459 54.72691629 -200.41532046 54.63844408 -195.64453125 54.70703125 C-194.82380127 54.70557602 -194.00307129 54.70412079 -193.1574707 54.70262146 C-191.42948847 54.70427477 -189.70149064 54.71577219 -187.97363281 54.73657227 C-185.33985367 54.76553897 -182.708089 54.75716742 -180.07421875 54.74414062 C-178.38931321 54.75037872 -176.70441398 54.75877021 -175.01953125 54.76953125 C-174.23811768 54.76659561 -173.4567041 54.76365997 -172.65161133 54.76063538 C-166.77919211 54.86116153 -162.56015651 56.10346822 -158.1640625 60.24609375 C-155.56556638 64.44025487 -154.36120161 68.79088732 -153.01953125 73.515625 C-152.72320801 74.52383301 -152.42688477 75.53204102 -152.12158203 76.57080078 C-151.18120005 79.7786088 -150.25657229 82.99072023 -149.33203125 86.203125 C-148.7225996 88.28812485 -148.11193947 90.37276606 -147.5 92.45703125 C-146.31417404 96.50084543 -145.13441852 100.54633626 -143.9609375 104.59375 C-142.18374546 110.72199842 -140.37964209 116.84211381 -138.5703125 122.9609375 C-136.78716734 129.03088346 -135.06558841 135.11887794 -133.33203125 141.203125 C-132.97077148 140.14440186 -132.60951172 139.08567871 -132.23730469 137.99487305 C-131.99531342 137.28575775 -131.75332214 136.57664246 -131.5039978 135.84603882 C-130.95188897 134.22815488 -130.39982768 132.61025473 -129.84780884 130.99234009 C-128.29183719 126.43265078 -126.73435823 121.87348402 -125.17431641 117.31518555 C-122.33275671 109.00971865 -119.49339464 100.70387502 -116.70361328 92.38084412 C-115.62996741 89.179447 -114.55001004 85.98019714 -113.46936035 82.78115845 C-112.96448323 81.28073558 -112.46272975 79.77925773 -111.9642334 78.27670288 C-111.26929192 76.18299076 -110.56356352 74.09320003 -109.85546875 72.00390625 C-109.46278809 70.82997314 -109.07010742 69.65604004 -108.66552734 68.4465332 C-106.58212878 63.37916779 -104.06961932 59.10680801 -99.33203125 56.203125 C-95.34808249 54.87514208 -91.6914885 54.97980418 -87.51953125 54.953125 C-86.72482422 54.9325 -85.93011719 54.911875 -85.11132812 54.890625 C-80.11859115 54.85758787 -76.55997735 55.26516537 -72.33203125 58.203125 C-68.49429368 63.12296768 -66.68801573 68.30170326 -64.7578125 74.19140625 C-64.43221848 75.15990509 -64.10662445 76.12840393 -63.77116394 77.12625122 C-62.72122529 80.25351457 -61.68302964 83.38454636 -60.64453125 86.515625 C-59.21747732 90.77476287 -57.78435036 95.03185071 -56.3515625 99.2890625 C-56.00284088 100.32798141 -55.65411926 101.36690033 -55.29483032 102.43730164 C-51.48851242 113.75882362 -47.47113627 124.998935 -43.33203125 136.203125 C-41.43189065 132.88064224 -40.75434857 129.79442138 -40.10546875 126.03515625 C-39.77119873 124.13963013 -39.77119873 124.13963013 -39.43017578 122.20581055 C-39.31305237 121.52658539 -39.19592896 120.84736023 -39.07525635 120.14755249 C-38.43075729 116.41607067 -37.7640412 112.6885632 -37.09765625 108.9609375 C-36.95639313 108.16908554 -36.81513 107.37723358 -36.66958618 106.56138611 C-34.8871274 96.631442 -32.91118268 86.73964944 -30.95297241 76.84320068 C-28.93125474 66.6081561 -26.97980779 56.36471063 -25.1484375 46.09375 C-24.96919739 45.09140823 -24.78995728 44.08906647 -24.60528564 43.05635071 C-23.73742206 38.19520576 -22.87879462 33.33268184 -22.03369141 28.4675293 C-21.72061868 26.70096637 -21.40731656 24.93444408 -21.09375 23.16796875 C-20.89260338 21.98155792 -20.89260338 21.98155792 -20.68739319 20.7711792 C-19.20041469 12.47992477 -17.4538185 6.20352881 -10.33203125 1.203125 C-7.09816998 -0.41380564 -3.55401269 0.01875832 0 0 Z " fill="#112E5F" transform="translate(343.33203125,186.796875)"/>
<path d="M0 0 C1.42854128 -0.0083016 1.42854128 -0.0083016 2.88594198 -0.0167709 C6.07351967 -0.03037174 9.26031362 -0.01541086 12.44787598 -0.00050354 C14.73456657 -0.00428691 17.02125488 -0.00978709 19.30793762 -0.01687622 C25.5165622 -0.03084563 31.72491012 -0.01965038 37.93351936 -0.00316501 C44.42898912 0.01067846 50.9244427 0.00422621 57.41992188 0.0007019 C68.32821206 -0.00200077 79.23638973 0.0113927 90.14465332 0.03465271 C101.36377037 0.05857281 112.58274191 0.06565668 123.80187988 0.05516052 C137.32769934 0.04252896 150.85340696 0.04504641 164.37922668 0.06081963 C169.54337639 0.06658019 174.70747738 0.06649616 179.87162781 0.06175423 C185.95211333 0.05698414 192.03239729 0.06708774 198.11284447 0.08870888 C200.34532682 0.09427643 202.57782854 0.09474234 204.81031227 0.08975601 C207.85594341 0.08380627 210.90095765 0.09630286 213.9465332 0.11352539 C215.27406498 0.10451032 215.27406498 0.10451032 216.62841558 0.09531313 C221.6550933 0.14705851 225.12139253 0.70833112 229.4732666 3.50120544 C233.38071065 7.83107587 234.80485245 10.43575661 234.6763916 16.34495544 C234.27608672 20.59434572 233.1572024 24.0346361 229.87133372 26.896357 C224.41462424 30.52714938 220.18085733 31.21655872 213.70602417 31.12939453 C212.27491961 31.14003611 212.27491961 31.14003611 210.81490386 31.15089267 C207.63338896 31.16842704 204.4531031 31.15039065 201.27160645 31.13230896 C198.98461858 31.13744942 196.69763468 31.14473166 194.41065979 31.1539917 C188.21036574 31.17249529 182.01050207 31.15957409 175.81022596 31.1399014 C169.32010368 31.12350924 162.83000853 31.13232841 156.33987427 31.13742065 C145.4435117 31.1419403 134.54732492 31.12618266 123.65100098 31.09812927 C112.44552479 31.06928046 101.24029319 31.06221573 90.03479004 31.07762146 C76.51960726 31.09617726 63.00461762 31.09444351 49.48942947 31.07540703 C44.33084722 31.06853294 39.17235585 31.06957266 34.01377487 31.07695198 C27.94141299 31.08460885 21.86940371 31.07250771 15.79710197 31.04510307 C13.56784677 31.03821258 11.33855868 31.03812834 9.10930443 31.0453186 C6.06798912 31.05399834 3.02776571 31.03808157 -0.01345825 31.01586914 C-0.8971152 31.02410991 -1.78077214 31.03235067 -2.69120657 31.04084116 C-8.12442325 30.96751931 -11.21070401 30.10411781 -15.5267334 26.50120544 C-19.46300271 22.15059199 -20.16557258 18.58343538 -19.9095459 12.89964294 C-19.13355266 8.03780773 -16.64020739 5.43137852 -12.97371674 2.36846828 C-8.4685255 -0.07203559 -5.03958512 -0.05469389 0 0 Z " fill="#13346B" transform="translate(148.5267333984375,131.49879455566406)"/>
<path d="M0 0 C5.39787363 2.36660504 7.68552833 5.63211101 10 11 C10.39440918 14.29151917 10.39440918 14.29151917 10.41992188 17.90063477 C10.42839142 18.56337906 10.43686096 19.22612335 10.44558716 19.90895081 C10.46886324 22.08663486 10.46998095 24.26360749 10.46875 26.44140625 C10.47586203 27.97110774 10.48356254 29.50080659 10.49182129 31.03050232 C10.50524808 34.23566084 10.50684521 37.44057323 10.50097656 40.64575195 C10.49511052 44.71850187 10.52554976 48.79004724 10.56609344 52.86256504 C10.59218104 56.02426825 10.59482851 59.18569053 10.59120178 62.3474865 C10.59287638 63.84675028 10.60235571 65.34602945 10.62034607 66.84518623 C10.76948375 80.8196609 7.40203911 91.7815027 -1 103 C-1.5775 103.86625 -2.155 104.7325 -2.75 105.625 C-10.76603075 114.08636579 -22.73698355 120.3540493 -34.4209137 121.26742554 C-36.20911781 121.27886093 -36.20911781 121.27886093 -38.03344727 121.29052734 C-39.03001846 121.30060318 -39.03001846 121.30060318 -40.04672241 121.31088257 C-42.22002853 121.32971932 -44.39302385 121.33377856 -46.56640625 121.3359375 C-48.08902611 121.3423725 -49.61164475 121.34910138 -51.13426208 121.35610962 C-54.31569283 121.36804438 -57.49701526 121.37179409 -60.6784668 121.37060547 C-64.74608065 121.37040182 -68.81299943 121.39776722 -72.88044834 121.43214989 C-76.02124704 121.45442551 -79.16187813 121.45844291 -82.30274773 121.45738602 C-83.80220892 121.45973854 -85.30167498 121.46854247 -86.80105782 121.48405075 C-88.89984687 121.50373771 -90.9971319 121.49786552 -93.09594727 121.48583984 C-94.88295799 121.4901149 -94.88295799 121.4901149 -96.70606995 121.49447632 C-101.82785591 120.72560697 -104.90260067 118.2160371 -108.3125 114.4375 C-111.17746756 110.29921352 -111.4868879 106.95002698 -111 102 C-108.69810053 96.79445971 -106.12809282 93.58228367 -101 91 C-97.99836731 90.63491821 -97.99836731 90.63491821 -94.62426758 90.64697266 C-93.35557327 90.64331696 -92.08687897 90.63966125 -90.77973938 90.63589478 C-89.76970572 90.64309477 -89.76970572 90.64309477 -88.73926735 90.65044022 C-86.61450021 90.66425779 -84.49065906 90.65769383 -82.3658905 90.64559937 C-76.32744171 90.61475911 -70.28921075 90.61940682 -64.25073242 90.63964844 C-60.54886166 90.65064365 -56.847685 90.63720954 -53.14591026 90.60975266 C-51.74468089 90.60435555 -50.3433802 90.6082637 -48.94220924 90.62215042 C-40.37277944 90.70605117 -33.06909006 90.28079187 -26 85 C-21.96219425 80.08990696 -20.87727356 74.99684186 -20.8581543 68.7878418 C-20.85111984 67.50608566 -20.84408539 66.22432953 -20.83683777 64.9037323 C-20.83502188 64.21889456 -20.83320599 63.53405682 -20.83133507 62.82846642 C-20.8241544 60.67996412 -20.80847564 58.53168821 -20.78999329 56.383255 C-20.73760227 50.27514774 -20.68956744 44.16716498 -20.67407227 38.05883789 C-20.66396782 34.32038569 -20.63458239 30.58250451 -20.59275246 26.84427834 C-20.58047266 25.42303609 -20.57531569 24.00171308 -20.57755089 22.58041954 C-20.57991423 20.58699875 -20.55548654 18.59360142 -20.5300293 16.6003418 C-20.52122993 14.9018232 -20.52122993 14.9018232 -20.51225281 13.16899109 C-19.69345864 8.10361833 -17.11244629 5.00649903 -13.375 1.625 C-8.78465518 -0.58516602 -5.00532944 -0.91077988 0 0 Z " fill="#0B1F42" transform="translate(444,333)"/>
<path d="M0 0 C1.49591208 -0.00202546 2.9918232 -0.00494082 4.48773193 -0.00869751 C7.60422276 -0.01309322 10.7204537 -0.00677588 13.83691406 0.00732422 C17.82028837 0.02447457 21.80305871 0.01452102 25.78641129 -0.00339317 C28.86802694 -0.01425513 31.94950026 -0.0107747 35.0311203 -0.0030098 C36.49985578 -0.00101753 37.96860445 -0.00343264 39.43732452 -0.01044846 C41.4901388 -0.01810994 43.54198408 -0.00639771 45.59472656 0.01025391 C46.75925354 0.01264069 47.92378052 0.01502747 49.12359619 0.01748657 C53.42908728 0.52437562 56.81903566 1.96054354 60.00390625 4.93359375 C63.59750489 9.63291505 64.77850614 12.16025772 64.703125 18.01171875 C64.13575854 21.95104726 62.29747338 24.76098174 59.359375 27.3984375 C55.03558905 29.91159507 51.91488296 30.77169424 46.93017578 30.76733398 C45.67512238 30.77421738 44.42006897 30.78110077 43.12698364 30.78819275 C42.46368168 30.78501478 41.80037971 30.78183681 41.11697769 30.77856255 C39.02208286 30.76938847 36.9280711 30.77974692 34.83322144 30.79518127 C28.88117724 30.83510386 22.92920671 30.83648911 16.97705078 30.83422852 C13.32596775 30.83417717 9.67536213 30.85346474 6.02441025 30.88356209 C3.97250184 30.89430705 1.92153643 30.88230613 -0.13034058 30.86973572 C-7.9442937 30.93190471 -14.17866642 31.22374903 -20.14962769 36.81028748 C-24.59090429 41.77064405 -25.88663256 46.20755634 -25.91186523 52.74584961 C-25.92205185 54.00743393 -25.93223846 55.26901825 -25.94273376 56.5688324 C-25.94367476 57.23787535 -25.94461575 57.9069183 -25.94558525 58.59623528 C-25.94926627 60.70298045 -25.96603913 62.80926213 -25.98634338 64.91590881 C-26.04159217 70.90275436 -26.07242047 76.88966692 -26.09692383 82.87670898 C-26.11284261 86.54604653 -26.14310333 90.2150528 -26.18168831 93.88421822 C-26.19329721 95.27755772 -26.1992683 96.67095655 -26.19936943 98.06434441 C-26.19956255 100.01682017 -26.21939924 101.96926367 -26.23999023 103.92163086 C-26.24759621 105.58445351 -26.24759621 105.58445351 -26.25535583 107.28086853 C-26.85688226 112.14837495 -28.55621642 115.39535956 -32.140625 118.7109375 C-36.74822473 121.82106732 -41.24161426 122.05482408 -46.640625 121.3984375 C-51.54028733 118.99482957 -53.97081087 116.1009411 -56.640625 111.3984375 C-57.14855957 108.10018921 -57.14855957 108.10018921 -57.15820312 104.48193359 C-57.1652124 103.81758301 -57.17222168 103.15323242 -57.17944336 102.46875 C-57.1969553 100.28602471 -57.18541839 98.10461212 -57.171875 95.921875 C-57.17457382 94.38977818 -57.17845948 92.85768304 -57.18347168 91.32559204 C-57.18935913 88.1161466 -57.18083579 84.90714731 -57.16210938 81.69775391 C-57.13943549 77.61605006 -57.15237294 73.53540521 -57.17639923 69.45374107 C-57.19097741 66.28777352 -57.18619489 63.12204938 -57.17588806 59.95607376 C-57.17324773 58.45322159 -57.17639398 56.95034622 -57.18580627 55.44752121 C-57.26711434 38.80372995 -52.8632239 25.85895027 -41.390625 13.5859375 C-29.44481909 2.24857672 -15.85860209 -0.07623926 0 0 Z " fill="#13346B" transform="translate(114.640625,57.6015625)"/>
<path d="M0 0 C1.29216934 -0.00637985 2.58433868 -0.0127597 3.91566467 -0.01933289 C5.33497073 -0.02086245 6.75427729 -0.02197594 8.17358398 -0.02270508 C9.6289015 -0.02591909 11.08421869 -0.02928327 12.53953552 -0.03279114 C15.59700264 -0.03878756 18.65444148 -0.04063075 21.71191406 -0.04003906 C25.60989374 -0.03993796 29.50768914 -0.05353418 33.40562534 -0.07081127 C36.41614088 -0.0819955 39.42661297 -0.08395623 42.43714714 -0.08342934 C43.87270677 -0.08460195 45.3082678 -0.08898292 46.74380684 -0.0967617 C64.01168972 -0.18149542 77.29801595 3.0704671 89.98608398 15.17651367 C98.59584349 24.19470579 104.0509427 35.59103643 104.16357422 48.14697266 C104.17189774 48.80814087 104.18022125 49.46930908 104.188797 50.1505127 C104.21269357 52.31418921 104.22164244 54.47756337 104.22827148 56.64135742 C104.2372512 58.15918561 104.24637326 59.67701296 104.25563049 61.19483948 C104.27206623 64.3678705 104.27981104 67.54079667 104.28271484 70.71386719 C104.28810241 74.76348681 104.32581983 78.81211079 104.37145901 82.86144924 C104.40131301 85.99375446 104.40844014 89.12582184 104.40944099 92.25825691 C104.41362445 93.75050494 104.42598296 95.24275491 104.44695854 96.73486137 C104.64618077 112.12691894 104.64618077 112.12691894 98.85717773 118.14526367 C94.75561295 121.12821988 90.9940352 121.67598591 86.03686523 121.50073242 C81.65516371 120.78615386 78.89258002 118.32348007 76.04467773 115.08276367 C73.81538166 111.44549113 73.72053398 108.39397619 73.68359375 104.22436523 C73.67010391 103.00589905 73.65661407 101.78743286 73.64271545 100.53204346 C73.62705788 98.55394684 73.62705788 98.55394684 73.61108398 96.53588867 C73.59557433 95.16688247 73.57936421 93.79788404 73.56248474 92.42889404 C73.49185785 86.61862244 73.43177118 80.8082756 73.38037109 74.99780273 C73.34843139 71.44103497 73.30711509 67.8844731 73.2601757 64.32787323 C73.23652667 62.32341018 73.22345565 60.31883127 73.21058655 58.31427002 C73.24242061 47.08676445 73.24242061 47.08676445 68.16967773 37.39526367 C67.71206055 36.84354492 67.25444336 36.29182617 66.78295898 35.72338867 C60.25451312 30.37350606 53.40298123 30.73788323 45.29328918 30.79570389 C43.16498733 30.80956016 41.03760561 30.80293734 38.90930176 30.79086304 C32.86337983 30.76006142 26.81767999 30.76476592 20.77172852 30.78491211 C17.06108123 30.79586643 13.35112997 30.78256733 9.64057922 30.75501633 C8.23407926 30.74960089 6.82750859 30.75357532 5.42106628 30.76741409 C-8.16291837 30.89957191 -8.16291837 30.89957191 -14.14282227 25.14526367 C-17.3177795 21.45821656 -17.66680723 18.07430666 -17.49438477 13.35620117 C-16.74302381 8.63097563 -13.9863836 5.88840104 -10.51782227 2.83276367 C-6.72414158 0.13725371 -4.64761338 0.01552794 0 0 Z " fill="#123166" transform="translate(350.142822265625,57.854736328125)"/>
<path d="M0 0 C4.92625715 2.37190159 7.31001721 5.30337398 10 10 C10.49206543 13.12861633 10.49206543 13.12861633 10.48242188 16.50512695 C10.48922974 17.77697342 10.4960376 19.04881989 10.50305176 20.35920715 C10.49737686 21.03168802 10.49170197 21.70416889 10.4858551 22.39702797 C10.46847635 24.52173749 10.47616308 26.6451001 10.4901123 28.76982117 C10.51964855 34.04669507 10.50661926 39.3233058 10.49493408 44.60021973 C10.48668869 49.06300673 10.49484153 53.52520194 10.52406311 57.9879055 C10.53109342 60.06697625 10.51456102 62.14496778 10.49694824 64.22395325 C10.5353575 71.45293323 10.76165391 77.89287693 15 84 C19.96528261 88.69224544 24.49219658 90.12114666 31.19628906 90.1418457 C32.4748175 90.14888016 33.75334595 90.15591461 35.07061768 90.16316223 C36.09544125 90.16588607 36.09544125 90.16588607 37.14096832 90.16866493 C39.28554472 90.17584797 41.42989462 90.1915292 43.57440186 90.21000671 C49.67147668 90.26238146 55.76842783 90.31041505 61.86572266 90.32592773 C65.59769527 90.33604415 69.32909771 90.36546119 73.06084442 90.40724754 C74.47846909 90.41951197 75.89617445 90.42468715 77.3138504 90.42244911 C91.08195428 90.4060661 91.08195428 90.4060661 97 95 C100.68219291 98.91975375 100.44346997 103.28216852 100.28515625 108.41015625 C99.76826871 113.10462803 97.92011892 115.17189297 94.5 118.25 C90.47443087 121.06789839 87.35057915 121.14038679 82.54760742 121.19287109 C81.5711879 121.20513733 81.5711879 121.20513733 80.57504272 121.21765137 C78.41852718 121.2424737 76.26207799 121.25902502 74.10546875 121.2734375 C73.36444727 121.27876118 72.62342579 121.28408485 71.85994911 121.28956985 C67.92755799 121.31630465 63.99519845 121.33566698 60.06274414 121.35009766 C56.83198239 121.36335969 53.60186389 121.39106568 50.37133789 121.43212891 C46.45147538 121.48194255 42.5321897 121.50627896 38.61202431 121.51332474 C37.13030002 121.51996509 35.64858487 121.53499418 34.16704369 121.55921555 C17.64973311 121.81355452 5.11097499 117.36338394 -7 106 C-15.25896971 96.63688996 -20.06067995 85.56879757 -20.19287109 73.11767578 C-20.20104858 72.44543976 -20.20922607 71.77320374 -20.21765137 71.08059692 C-20.24234624 68.8688442 -20.25897762 66.65715482 -20.2734375 64.4453125 C-20.27876118 63.68635555 -20.28408485 62.92739861 -20.28956985 62.14544296 C-20.31622863 58.13033817 -20.33562905 54.11526372 -20.35009766 50.10009766 C-20.3634458 46.78666637 -20.39132388 43.47384962 -20.43212891 40.16064453 C-20.48153768 36.14773699 -20.50622757 32.13538726 -20.51332474 28.12218857 C-20.52001917 26.59839653 -20.53519416 25.07461608 -20.55921555 23.55099869 C-20.75830606 10.1627901 -20.75830606 10.1627901 -17.60400391 5.63232422 C-12.1289837 0.09775945 -7.6941534 -1.09916477 0 0 Z " fill="#113063" transform="translate(78,333)"/>
<path d="M0 0 C1.47074136 -0.00322215 2.94147897 -0.00904369 4.41220093 -0.01725769 C8.39171338 -0.03175224 12.3702106 -0.0089041 16.34960032 0.02160144 C20.51925844 0.04802331 24.68888728 0.0426691 28.85861206 0.04151917 C35.85773635 0.04432519 42.85646945 0.070326 49.85546875 0.11132812 C57.94389745 0.15853773 66.03189837 0.17432096 74.12045491 0.17212147 C82.7398346 0.1700943 91.35904972 0.19091809 99.97837973 0.21846128 C102.45927781 0.2248505 104.94014928 0.22698414 107.42105484 0.22817802 C111.32000723 0.23119444 115.21860137 0.24953324 119.11743546 0.27967644 C120.54726975 0.28842831 121.97714529 0.2921322 123.40700531 0.29039383 C125.36017172 0.28891796 127.31332185 0.30777097 129.26638794 0.32762146 C130.35883883 0.33264899 131.45128971 0.33767653 132.57684517 0.34285641 C137.20094553 0.95016709 139.73171639 2.83653106 142.76513672 6.29125977 C145.72838634 10.41864317 146.00282734 13.73444654 145.51513672 18.72875977 C143.77254986 24.53738263 141.76654543 26.80156913 136.51513672 29.72875977 C133.44097328 30.24050426 133.44097328 30.24050426 130.11489868 30.25688171 C128.21406273 30.28030388 128.21406273 30.28030388 126.27482605 30.30419922 C124.88308618 30.3012068 123.4913472 30.29777414 122.09960938 30.29394531 C120.62402655 30.30428461 119.14845451 30.31627525 117.67289734 30.32978821 C113.67482411 30.36078554 109.67711164 30.36611364 105.67893267 30.36485648 C102.33658526 30.36568819 98.99431563 30.37793988 95.6519922 30.38980609 C87.76387598 30.41716344 79.8759466 30.42251351 71.98779297 30.41503906 C63.86113435 30.40779889 55.73534342 30.44121201 47.60887301 30.49409646 C40.6218001 30.53791828 33.6350071 30.55458954 26.6477989 30.55006057 C22.47897791 30.54774178 18.31085817 30.55598988 14.14216995 30.59113121 C10.21992733 30.62316139 6.29911842 30.62122178 2.37685585 30.59368706 C0.94179575 30.58924359 -0.49335991 30.59662458 -1.92828178 30.6170311 C-14.08915153 30.77818844 -14.08915153 30.77818844 -19.33950806 26.30012512 C-22.51020339 23.02212044 -23.63401524 20.9796761 -23.67236328 16.41625977 C-23.56784765 10.96402762 -22.6227265 7.61322659 -18.80032349 3.629776 C-13.33389729 -0.92156963 -6.75775301 -0.08592909 0 0 Z " fill="#12336A" transform="translate(152.48486328125,186.271240234375)"/>
<path d="M0 0 C0.66 0.33 1.32 0.66 2 1 C-2.95 5.95 -7.9 10.9 -13 16 C-13 11.08924079 -9.30469813 8.39044878 -6 5 C-4.05397986 3.23549584 -2.07285289 1.6178364 0 0 Z " fill="#3FA8D6" transform="translate(28,14)"/>
</svg>
